<?xml version="1.0" encoding="utf-8" ?>
<svg xmlns="http://www.w3.org/2000/svg" xmlns:xlink="http://www.w3.org/1999/xlink" width="985" height="985">
	<path fill="#121213" transform="scale(1.92396 1.92396)" d="M262.318 456.481C199.882 457.64 143.399 433.992 102.497 385.568C2.99192 267.764 67.6426 84.5341 221.878 57.5534C231.212 55.9206 240.659 55.4776 250.091 54.7926C261.447 54.6774 272.889 55.0436 284.148 56.627C378.712 69.9263 453.168 150.25 457.254 246.249C462.095 360.017 375.518 451.752 262.318 456.481ZM285.736 260.485L285.507 260.506C283.122 260.698 280.671 260.532 278.277 260.509L226.401 260.47C196.468 260.464 199.437 260.405 199.466 287.062L199.49 361.129C199.455 382.263 194.321 387.907 218.95 387.855L302.453 387.839C307.368 389.11 314.569 386.697 313.467 380.397C313.3 373.58 313.455 366.724 313.458 359.904L313.455 299.055C313.443 295.846 313.069 292.385 313.467 289.218C313.098 286.859 288.635 261.077 286.072 260.397L285.902 260.627L285.736 260.485ZM193.259 279.386C193.331 258.136 193.527 257.824 172.761 245.974C171.963 247.895 167.146 259.834 165.247 257.422C163.364 255.033 165.354 250.947 166.502 248.69C160.288 251.566 153.727 251.449 147.57 248.69C148.957 250.871 150.515 253.09 149.972 255.833C148.518 263.177 141.992 246.791 141.571 245.974C124.994 255.18 118.961 261.098 121.436 280.439C122.559 287.251 128.938 287.679 134.617 287.379L164.276 287.362C168.568 287.36 173.434 286.951 177.641 287.379C184.72 287.319 193.11 288.954 193.259 279.386ZM253.7 124.082C231.873 127.177 223.643 153.94 241.367 167.112C245.846 170.441 253.15 173.566 258.805 171.74C272.155 171.092 281.014 159.166 280.304 146.259C279.609 133.62 266.657 121.747 253.7 124.082ZM303.623 162.145C301.497 163.845 293.397 170.71 293.309 173.153C293.256 174.617 302.147 184.306 305.149 183.933C309.553 181.664 303.751 177.755 302.453 175.921L344.673 175.921L344.673 181.375L344.673 194.164C346.288 194.179 347.908 194.218 349.522 194.164L349.522 170.895L300.83 170.895C303.351 168.71 310.222 163.979 303.623 162.145ZM207.085 163.221C203.016 166.392 206.66 168.478 209.497 170.895C202.106 170.893 165.972 169.836 162.025 171.438C161.322 173.781 161.198 194.51 162.019 196.586C168.222 202.171 166.492 184.544 166.502 183.063C166.488 180.686 166.422 178.296 166.502 175.921L209.497 175.921C208.134 177.214 204.887 179.664 204.978 181.722C205.278 188.548 216.81 176.215 218.218 173.552C217.632 170.959 210.359 163.221 207.085 163.221ZM238.084 171.74C228.489 175.656 220.638 180.412 218.957 191.247C218.362 195.08 217.962 206.947 219.327 210.347C222.661 218.65 231.979 216.768 239.116 216.747L276.566 216.753C282.925 216.758 287.779 218.093 291.907 212.154C294.841 206.938 293.864 193.657 292.369 188.302C289.37 177.565 283.046 176.657 274.875 171.74C270.956 175.689 268.601 180.874 265.171 185.218C261.954 182.165 258.92 178.684 255.465 175.921C252.792 179.537 249.171 182.065 246.021 185.218C244.75 183.256 239.197 172.206 238.084 171.74ZM265.171 174.79C263.293 175.214 261.427 175.64 259.521 175.921C260.415 176.946 261.309 177.895 262.318 178.811L263.816 180.214C264.395 178.948 266.097 176.059 265.73 174.775L265.171 174.79ZM351.416 200.083C322.938 203.305 325.923 249.232 358.544 245.457C378.82 241.916 384.631 215.212 367.25 203.451C363.27 200.758 356.171 198.509 351.416 200.083ZM154.682 200.083C126.42 204.128 126.746 245.944 160.041 245.974C190.782 238.544 184.065 196.331 154.682 200.083ZM254.6 219.98C252.206 223.099 253.718 232.966 253.7 237.003C250.642 233.537 247.597 228.667 244.624 234.934C246.717 237.648 254.045 246.968 257.703 245.457C260.289 242.18 268.364 236.817 268.165 233.478C267.805 227.408 259.713 236.106 258.805 237.003C258.829 231.674 261.476 219.182 254.6 219.98ZM371.06 245.974C368.892 250.054 366.548 254.369 363.598 257.941C361.441 255.634 359.44 253.242 357.461 250.783C356.004 250.686 354.635 250.658 353.178 250.783C350.924 253.077 348.634 255.368 346.693 257.941C344.194 253.923 341.417 250.04 339.01 245.974C330.6 249.288 322.391 253.964 321.2 263.703C320.531 269.182 319.616 281.768 323.502 286.181C328.963 288.778 347.848 287.394 354.433 287.395C361.822 287.396 386.079 290.342 389.456 283.104C390.783 280.26 390.512 268.123 390.095 264.641C388.841 254.162 380.673 248.791 371.06 245.974ZM343.905 250.095C344.729 251.319 345.747 252.278 346.693 253.391C347.366 252.518 348.014 251.578 348.776 250.783L349.522 250.095C347.641 249.874 345.791 249.999 343.905 250.095ZM365.752 250.095C363.883 250.043 362.013 249.984 360.145 250.095L361.942 252.519C363.639 253.788 365.81 252.231 365.88 250.209L365.752 250.095Z"/>
	<path fill="#FFF2F2" transform="scale(1.92396 1.92396)" d="M258.805 171.74C253.15 173.566 245.846 170.441 241.367 167.112C223.643 153.94 231.873 127.177 253.7 124.082C266.657 121.747 279.609 133.62 280.304 146.259C281.014 159.166 272.155 171.092 258.805 171.74Z"/>
	<path fill="#FFF2F2" transform="scale(1.92396 1.92396)" d="M291.907 212.154C287.779 218.093 282.925 216.758 276.566 216.753L239.116 216.747C231.979 216.768 222.661 218.65 219.327 210.347C217.962 206.947 218.362 195.08 218.957 191.247C220.638 180.412 228.489 175.656 238.084 171.74C239.197 172.206 244.75 183.256 246.021 185.218C249.171 182.065 252.792 179.537 255.465 175.921C258.92 178.684 261.954 182.165 265.171 185.218C268.601 180.874 270.956 175.689 274.875 171.74C283.046 176.657 289.37 177.565 292.369 188.302C293.864 193.657 294.841 206.938 291.907 212.154Z"/>
	<path fill="#FFF2F2" transform="scale(1.92396 1.92396)" d="M259.521 175.921C261.427 175.64 263.293 175.214 265.171 174.79L265.73 174.775C266.097 176.059 264.395 178.948 263.816 180.214L262.318 178.811C261.309 177.895 260.415 176.946 259.521 175.921Z"/>
	<path fill="#F19696" transform="scale(1.92396 1.92396)" d="M358.544 245.457C325.923 249.232 322.938 203.305 351.416 200.083C356.171 198.509 363.27 200.758 367.25 203.451C384.631 215.212 378.82 241.916 358.544 245.457Z"/>
	<path fill="#F19696" transform="scale(1.92396 1.92396)" d="M160.041 245.974C126.746 245.944 126.42 204.128 154.682 200.083C184.065 196.331 190.782 238.544 160.041 245.974Z"/>
	<path fill="#FFF2F2" transform="scale(1.92396 1.92396)" d="M253.7 237.003C253.718 232.966 252.206 223.099 254.6 219.98C261.476 219.182 258.829 231.674 258.805 237.003C259.713 236.106 267.805 227.408 268.165 233.478C268.364 236.817 260.289 242.18 257.703 245.457C254.045 246.968 246.717 237.648 244.624 234.934C247.597 228.667 250.642 233.537 253.7 237.003Z"/>
	<path fill="#FFF2F2" transform="scale(1.92396 1.92396)" d="M363.598 257.941C366.548 254.369 368.892 250.054 371.06 245.974C380.673 248.791 388.841 254.162 390.095 264.641C390.512 268.123 390.783 280.26 389.456 283.104C386.079 290.342 361.822 287.396 354.433 287.395C347.848 287.394 328.963 288.778 323.502 286.181C319.616 281.768 320.531 269.182 321.2 263.703C322.391 253.964 330.6 249.288 339.01 245.974C341.417 250.04 344.194 253.923 346.693 257.941C348.634 255.368 350.924 253.077 353.178 250.783C354.635 250.658 356.004 250.686 357.461 250.783C359.44 253.242 361.441 255.634 363.598 257.941Z"/>
	<path fill="#FFF2F2" transform="scale(1.92396 1.92396)" d="M193.259 279.386C192.053 286.68 182.815 285.812 177.641 287.379C173.434 286.951 168.568 287.36 164.276 287.362L134.617 287.379L121.436 280.439C118.961 261.098 124.994 255.18 141.571 245.974C141.992 246.791 148.518 263.177 149.972 255.833C150.515 253.09 148.957 250.871 147.57 248.69C153.727 251.449 160.288 251.566 166.502 248.69C165.354 250.947 163.364 255.033 165.247 257.422C167.146 259.834 171.963 247.895 172.761 245.974C193.527 257.824 193.331 258.136 193.259 279.386Z"/>
	<path fill="#FFF2F2" transform="scale(1.92396 1.92396)" d="M346.693 253.391C345.747 252.278 344.729 251.319 343.905 250.095C345.791 249.999 347.641 249.874 349.522 250.095L348.776 250.783C348.014 251.578 347.366 252.518 346.693 253.391Z"/>
	<path fill="#FFF2F2" transform="scale(1.92396 1.92396)" d="M360.145 250.095C362.013 249.984 363.883 250.043 365.752 250.095L365.88 250.209C365.81 252.231 363.639 253.788 361.942 252.519L360.145 250.095Z"/>
	<path fill="#F19696" transform="scale(1.92396 1.92396)" d="M285.736 260.485L285.902 260.627L286.072 260.397C288.635 261.077 313.098 286.859 313.467 289.218C310.713 289.693 307.446 289.252 304.63 289.236L285.736 289.218C285.739 279.669 285.407 270.02 285.736 260.485Z"/>
	<path fill="#FFF2F2" transform="scale(1.92396 1.92396)" d="M302.453 387.839L218.95 387.855C194.321 387.907 199.455 382.263 199.49 361.129L199.466 287.062C199.437 260.405 196.468 260.464 226.401 260.47L278.277 260.509C280.671 260.532 283.122 260.698 285.507 260.506L285.736 260.485C285.407 270.02 285.739 279.669 285.736 289.218L304.63 289.236C307.446 289.252 310.713 289.693 313.467 289.218C313.069 292.385 313.443 295.846 313.455 299.055L313.458 359.904C313.455 366.724 313.3 373.58 313.467 380.397C311.241 385.848 307.796 387.121 302.453 387.839ZM215.746 284.059C208.959 285.23 212.263 303.543 213.273 305.367C215.297 306.537 229.745 306.041 233.021 305.935C237.082 304.723 235.09 286.521 234.546 284.965C232.593 283.28 218.945 284.05 215.746 284.059ZM247.152 293.317C243.897 294.1 244.782 298.425 247.795 299.131C250.882 299.855 257.837 299.159 261.369 299.17L287.601 299.219C291.54 299.224 295.777 299.58 299.687 299.216C302.204 297.548 302.168 293.912 298.681 293.479C293.547 292.84 286.72 293.309 281.382 293.307L247.152 293.317ZM214.203 315.554C210.512 316.935 212.001 334.549 212.624 336.338C215.347 338.586 229.469 337.665 233.021 337.413C236.701 335.352 235.353 318.305 234.682 316.494C232.537 314.991 217.776 315.48 214.203 315.554ZM293.391 323.701L262.588 323.691C259.944 323.692 247.214 322.688 245.786 324.632C241.71 330.18 251.902 329.307 253.7 329.303L285.232 329.308C288.54 329.31 302.13 331.459 301.515 326.417C301.034 322.469 296.162 323.565 293.391 323.701ZM214.203 347.233C209.983 349.64 212.608 367.81 212.91 368.164C214.545 370.081 230.048 369.57 233.62 369.314C236.21 366.316 235.834 351.272 234.674 348.048C232.274 346.653 217.782 347.124 214.203 347.233ZM272.239 354.148L256.064 354.15C253.513 354.154 244.453 352.738 245.251 357.437C245.912 361.331 255.537 360.017 258.183 359.998L274.875 359.983C279.667 359.99 297.227 360.658 300.549 359.214C306.663 353.052 290.734 354.131 288.931 354.135L272.239 354.148Z"/>
	<path fill="#ECB6B6" transform="scale(1.92396 1.92396)" d="M177.641 287.379C182.815 285.812 192.053 286.68 193.259 279.386C193.11 288.954 184.72 287.319 177.641 287.379Z"/>
	<path fill="#ECB6B6" transform="scale(1.92396 1.92396)" d="M121.436 280.439L134.617 287.379C128.938 287.679 122.559 287.251 121.436 280.439Z"/>
	<path fill="#121213" transform="scale(1.92396 1.92396)" d="M233.021 305.935C229.745 306.041 215.297 306.537 213.273 305.367C212.263 303.543 208.959 285.23 215.746 284.059C218.945 284.05 232.593 283.28 234.546 284.965C235.09 286.521 237.082 304.723 233.021 305.935ZM215.746 287.938L215.746 301.701L231.509 301.701L231.509 287.938L215.746 287.938Z"/>
	<path fill="#F19696" transform="scale(1.92396 1.92396)" d="M215.746 301.701L215.746 287.938L231.509 287.938L231.509 301.701L215.746 301.701Z"/>
	<path fill="#121213" transform="scale(1.92396 1.92396)" d="M299.687 299.216C295.777 299.58 291.54 299.224 287.601 299.219L261.369 299.17C257.837 299.159 250.882 299.855 247.795 299.131C244.782 298.425 243.897 294.1 247.152 293.317L281.382 293.307C286.72 293.309 293.547 292.84 298.681 293.479C302.168 293.912 302.204 297.548 299.687 299.216Z"/>
	<path fill="#121213" transform="scale(1.92396 1.92396)" d="M233.021 337.413C229.469 337.665 215.347 338.586 212.624 336.338C212.001 334.549 210.512 316.935 214.203 315.554C217.776 315.48 232.537 314.991 234.682 316.494C235.353 318.305 236.701 335.352 233.021 337.413ZM215.746 319.51L215.746 333.247L231.509 333.247L231.509 319.51C226.294 319.5 220.949 319.764 215.746 319.51Z"/>
	<path fill="#F19696" transform="scale(1.92396 1.92396)" d="M215.746 333.247L215.746 319.51C220.949 319.764 226.294 319.5 231.509 319.51L231.509 333.247L215.746 333.247Z"/>
	<path fill="#121213" transform="scale(1.92396 1.92396)" d="M253.7 329.303C251.902 329.307 241.71 330.18 245.786 324.632C247.214 322.688 259.944 323.692 262.588 323.691L293.391 323.701C296.162 323.565 301.034 322.469 301.515 326.417C302.13 331.459 288.54 329.31 285.232 329.308L253.7 329.303Z"/>
	<path fill="#121213" transform="scale(1.92396 1.92396)" d="M233.62 369.314C230.048 369.57 214.545 370.081 212.91 368.164C212.608 367.81 209.983 349.64 214.203 347.233C217.782 347.124 232.274 346.653 234.674 348.048C235.834 351.272 236.21 366.316 233.62 369.314ZM215.746 351.037L215.746 365.244L231.509 365.244L231.509 351.037L215.746 351.037Z"/>
	<path fill="#F19696" transform="scale(1.92396 1.92396)" d="M215.746 365.244L215.746 351.037L231.509 351.037L231.509 365.244L215.746 365.244Z"/>
	<path fill="#121213" transform="scale(1.92396 1.92396)" d="M274.875 359.983L258.183 359.998C255.537 360.017 245.912 361.331 245.251 357.437C244.453 352.738 253.513 354.154 256.064 354.15L272.239 354.148L288.931 354.135C290.734 354.131 306.663 353.052 300.549 359.214C297.227 360.658 279.667 359.99 274.875 359.983Z"/>
	<path fill="#ECB6B6" transform="scale(1.92396 1.92396)" d="M302.453 387.839C307.796 387.121 311.241 385.848 313.467 380.397C314.569 386.697 307.368 389.11 302.453 387.839Z"/>
</svg>
